<svg width="24" height="24" viewBox="0 0 24 24" fill="none" xmlns="http://www.w3.org/2000/svg">
    <path d="M4.99994 9L5 18C5 18.5523 5.44772 19 6 19H17.9999C18.5522 19 18.9999 18.5523 18.9999 18V9M4.99994 9L4.99999 5.99998C5 5.4477 5.44772 5 5.99999 5H8.99994M4.99994 9H18.9999M18.9999 9V6C18.9999 5.44772 18.5522 5 17.9999 5H14.9999M8.99994 5H14.9999M8.99994 5V4V3.5M8.99994 5V6.5M14.9999 5V3.5M14.9999 5V6.5"
          stroke="currentColor" stroke-width="1.5" stroke-linecap="round" stroke-linejoin="round"/>
</svg>
