<svg width="80" height="80" viewBox="0 0 80 80" fill="none" xmlns="http://www.w3.org/2000/svg">
    <g clip-path="url(#clip0_2345_5251)">
        <path d="M5.99818 80.0002C2.68442 80.0002 -0.00189199 77.3139 -0.00181657 74.0001L-0.000542097 17.9999C-0.000466684 14.6863 2.68579 12.0001 5.99944 12.0001L26.1573 12C27.807 12 29.3839 12.6793 30.5173 13.878L36.1505 19.8365C37.2838 21.0353 38.8607 21.7145 40.5104 21.7145H74.0006C77.3143 21.7145 80.0006 24.4008 80.0006 27.7145V74.0002C80.0006 77.3139 77.3143 80.0002 74.0006 80.0002H5.99818Z"
              fill="#234A9B" fill-opacity="0.2"/>
        <path d="M5.99818 79.0002C3.23671 79.0002 0.998121 76.7616 0.998183 74.0001L0.999458 17.9999C0.999521 15.2386 3.23807 13.0001 5.99944 13.0001L26.1573 13C27.532 13 28.8462 13.566 29.7906 14.565L35.4238 20.5235C36.746 21.9221 38.5858 22.7145 40.5104 22.7145H74.0006C76.762 22.7145 79.0006 24.9531 79.0006 27.7145V74.0002C79.0006 76.7617 76.762 79.0002 74.0006 79.0002H5.99818Z"
              stroke="#234A9B" stroke-opacity="0.75" stroke-width="2"/>
    </g>
    <defs>
        <clipPath id="clip0_2345_5251">
            <rect width="80" height="80" fill="white"/>
        </clipPath>
    </defs>
</svg>
