<svg width="24" height="24" viewBox="0 0 24 24" fill="none" xmlns="http://www.w3.org/2000/svg">
    <path d="M19.5 7.125V17.25C19.5 18.4927 16.1423 19.5 12 19.5C7.85775 19.5 4.5 18.4927 4.5 17.25V7.125M19.5 13.875C19.5 15.1177 16.1423 16.125 12 16.125C7.85775 16.125 4.5 15.1177 4.5 13.875M19.5 10.5C19.5 11.7427 16.1423 12.75 12 12.75C7.85775 12.75 4.5 11.7427 4.5 10.5M19.5 6.75C19.5 7.99264 16.1421 9 12 9C7.85786 9 4.5 7.99264 4.5 6.75C4.5 5.50736 7.85786 4.5 12 4.5C16.1421 4.5 19.5 5.50736 19.5 6.75Z"
          stroke="currentColor" stroke-width="1.5" stroke-linecap="round" stroke-linejoin="round"/>
</svg>
