<svg width="20" height="20" viewBox="0 0 20 20" fill="none" xmlns="http://www.w3.org/2000/svg">
    <path fill-rule="evenodd" clip-rule="evenodd"
          d="M10 3.625C6.47918 3.625 3.625 6.47918 3.625 10C3.625 13.5208 6.47918 16.375 10 16.375C13.5208 16.375 16.375 13.5208 16.375 10C16.375 6.47918 13.5208 3.625 10 3.625ZM2.375 10C2.375 5.78883 5.78883 2.375 10 2.375C14.2112 2.375 17.625 5.78883 17.625 10C17.625 14.2112 14.2112 17.625 10 17.625C5.78883 17.625 2.375 14.2112 2.375 10Z"
          fill="currentColor"/>
    <path fill-rule="evenodd" clip-rule="evenodd"
          d="M10 6.375C10.3452 6.375 10.625 6.65482 10.625 7C10.625 7.34518 10.3452 7.62502 10 7.62502C9.65482 7.62502 9.375 7.3452 9.375 7.00002C9.375 6.65484 9.65482 6.375 10 6.375ZM10 8.62501C10.3452 8.62501 10.625 8.90483 10.625 9.25V13C10.625 13.3452 10.3452 13.625 10 13.625C9.65482 13.625 9.375 13.3452 9.375 13V9.25C9.375 8.90483 9.65482 8.62501 10 8.62501Z"
          fill="currentColor"/>
</svg>
