<svg width="80" height="24" viewBox="0 0 80 24" fill="none" xmlns="http://www.w3.org/2000/svg">
    <path d="M7.41016 18L3.28516 4.55859H3.17969C3.19531 4.87891 3.21875 5.36328 3.25 6.01172C3.28906 6.65234 3.32422 7.33594 3.35547 8.0625C3.38672 8.78906 3.40234 9.44531 3.40234 10.0312V18H0.15625V0.867188H5.10156L9.15625 13.9688H9.22656L13.5273 0.867188H18.4727V18H15.0859V9.89062C15.0859 9.35156 15.0938 8.73047 15.1094 8.02734C15.1328 7.32422 15.1602 6.65625 15.1914 6.02344C15.2227 5.38281 15.2461 4.90234 15.2617 4.58203H15.1562L10.7383 18H7.41016ZM22.7969 18V0.867188H26.4297V15H33.3789V18H22.7969Z"
          fill="#234A9B"/>
    <path d="M51.918 9.41016C51.918 10.7305 51.7539 11.9336 51.4258 13.0195C51.0977 14.0977 50.5977 15.0273 49.9258 15.8086C49.2617 16.5898 48.418 17.1914 47.3945 17.6133C46.3711 18.0273 45.1602 18.2344 43.7617 18.2344C42.3633 18.2344 41.1523 18.0273 40.1289 17.6133C39.1055 17.1914 38.2578 16.5898 37.5859 15.8086C36.9219 15.0273 36.4258 14.0938 36.0977 13.0078C35.7695 11.9219 35.6055 10.7148 35.6055 9.38672C35.6055 7.61328 35.8945 6.07031 36.4727 4.75781C37.0586 3.4375 37.957 2.41406 39.168 1.6875C40.3789 0.960938 41.918 0.597656 43.7852 0.597656C45.6445 0.597656 47.1719 0.960938 48.3672 1.6875C49.5703 2.41406 50.4609 3.4375 51.0391 4.75781C51.625 6.07812 51.918 7.62891 51.918 9.41016ZM39.4141 9.41016C39.4141 10.6055 39.5625 11.6367 39.8594 12.5039C40.1641 13.3633 40.6367 14.0273 41.2773 14.4961C41.918 14.957 42.7461 15.1875 43.7617 15.1875C44.793 15.1875 45.6289 14.957 46.2695 14.4961C46.9102 14.0273 47.375 13.3633 47.6641 12.5039C47.9609 11.6367 48.1094 10.6055 48.1094 9.41016C48.1094 7.61328 47.7734 6.19922 47.1016 5.16797C46.4297 4.13672 45.3242 3.62109 43.7852 3.62109C42.7617 3.62109 41.9258 3.85547 41.2773 4.32422C40.6367 4.78516 40.1641 5.44922 39.8594 6.31641C39.5625 7.17578 39.4141 8.20703 39.4141 9.41016ZM62.4766 4.65234C63.9531 4.65234 65.1445 5.22656 66.0508 6.375C66.9648 7.52344 67.4219 9.20703 67.4219 11.4258C67.4219 12.9102 67.207 14.1602 66.7773 15.1758C66.3477 16.1836 65.7539 16.9453 64.9961 17.4609C64.2383 17.9766 63.3672 18.2344 62.3828 18.2344C61.75 18.2344 61.207 18.1562 60.7539 18C60.3008 17.8359 59.9141 17.6289 59.5938 17.3789C59.2734 17.1211 58.9961 16.8477 58.7617 16.5586H58.5742C58.6367 16.8711 58.6836 17.1914 58.7148 17.5195C58.7461 17.8477 58.7617 18.168 58.7617 18.4805V23.7656H55.1875V4.89844H58.0938L58.5977 6.59766H58.7617C58.9961 6.24609 59.2812 5.92188 59.6172 5.625C59.9531 5.32812 60.3555 5.09375 60.8242 4.92188C61.3008 4.74219 61.8516 4.65234 62.4766 4.65234ZM61.3281 7.51172C60.7031 7.51172 60.207 7.64062 59.8398 7.89844C59.4727 8.15625 59.2031 8.54297 59.0312 9.05859C58.8672 9.57422 58.7773 10.2266 58.7617 11.0156V11.4023C58.7617 12.2461 58.8398 12.9609 58.9961 13.5469C59.1602 14.1328 59.4297 14.5781 59.8047 14.8828C60.1875 15.1875 60.7109 15.3398 61.375 15.3398C61.9219 15.3398 62.3711 15.1875 62.7227 14.8828C63.0742 14.5781 63.3359 14.1328 63.5078 13.5469C63.6875 12.9531 63.7773 12.2305 63.7773 11.3789C63.7773 10.0977 63.5781 9.13281 63.1797 8.48438C62.7812 7.83594 62.1641 7.51172 61.3281 7.51172ZM79.5156 14.1094C79.5156 15 79.3047 15.7539 78.8828 16.3711C78.4688 16.9805 77.8477 17.4453 77.0195 17.7656C76.1914 18.0781 75.1602 18.2344 73.9258 18.2344C73.0117 18.2344 72.2266 18.1758 71.5703 18.0586C70.9219 17.9414 70.2656 17.7461 69.6016 17.4727V14.5195C70.3125 14.8398 71.0742 15.1055 71.8867 15.3164C72.707 15.5195 73.4258 15.6211 74.043 15.6211C74.7383 15.6211 75.2344 15.5195 75.5312 15.3164C75.8359 15.1055 75.9883 14.832 75.9883 14.4961C75.9883 14.2773 75.9258 14.082 75.8008 13.9102C75.6836 13.7305 75.4258 13.5312 75.0273 13.3125C74.6289 13.0859 74.0039 12.793 73.1523 12.4336C72.332 12.0898 71.6562 11.7422 71.125 11.3906C70.6016 11.0391 70.2109 10.625 69.9531 10.1484C69.7031 9.66406 69.5781 9.05078 69.5781 8.30859C69.5781 7.09766 70.0469 6.1875 70.9844 5.57812C71.9297 4.96094 73.1914 4.65234 74.7695 4.65234C75.582 4.65234 76.3555 4.73438 77.0898 4.89844C77.832 5.0625 78.5938 5.32422 79.375 5.68359L78.2969 8.26172C77.6484 7.98047 77.0352 7.75 76.457 7.57031C75.8867 7.39062 75.3047 7.30078 74.7109 7.30078C74.1875 7.30078 73.793 7.37109 73.5273 7.51172C73.2617 7.65234 73.1289 7.86719 73.1289 8.15625C73.1289 8.36719 73.1953 8.55469 73.3281 8.71875C73.4688 8.88281 73.7344 9.06641 74.125 9.26953C74.5234 9.46484 75.1055 9.71875 75.8711 10.0312C76.6133 10.3359 77.2578 10.6562 77.8047 10.9922C78.3516 11.3203 78.7734 11.7305 79.0703 12.2227C79.3672 12.707 79.5156 13.3359 79.5156 14.1094Z"
          fill="#0F0F14"/>
</svg>
