<svg width="24" height="24" viewBox="0 0 24 24" fill="none" xmlns="http://www.w3.org/2000/svg">
    <path d="M12 10V17M12 10C12.5464 10 13.0587 9.85391 13.5 9.59865C13.6831 9.49273 13.854 9.368 14.01 9.22712M12 10C11.4535 10 10.9412 9.85391 10.5 9.59865C10.3169 9.49273 10.146 9.368 9.98997 9.22712M12 17C10.8954 17 9.99997 17.8954 9.99997 19C9.99997 20.1046 10.8954 21 12 21C13.1045 21 14 20.1046 14 19C14 17.8954 13.1045 17 12 17ZM18.1617 14.3789C17.6598 14.7423 17.3333 15.333 17.3333 16C17.3333 17.1046 18.2287 18 19.3333 18C20.4379 18 21.3333 17.1046 21.3333 16C21.3333 14.8954 20.4379 14 19.3333 14C18.8957 14 18.491 14.1405 18.1617 14.3789ZM18.1617 14.3789L14.01 9.22712M5.8382 14.3789C5.50894 14.1405 5.10419 14 4.66663 14C3.56206 14 2.66663 14.8954 2.66663 16C2.66663 17.1046 3.56206 18 4.66663 18C5.7712 18 6.66663 17.1046 6.66663 16C6.66663 15.333 6.34011 14.7423 5.8382 14.3789ZM5.8382 14.3789L9.98997 9.22712M9.98997 9.22712C9.38203 8.6781 8.99997 7.88367 8.99997 7C8.99997 5.34315 10.3431 4 12 4C13.6568 4 15 5.34315 15 7C15 7.88367 14.6179 8.6781 14.01 9.22712"
          stroke="currentColor" stroke-width="1.5"/>
</svg>
