<svg width="24" height="24" viewBox="0 0 24 24" fill="none" xmlns="http://www.w3.org/2000/svg">
    <path d="M8.88889 5C8.88889 4.44772 9.3366 4 9.88889 4H14.1111C14.6634 4 15.1111 4.44772 15.1111 5V7C15.1111 7.55228 14.6634 8 14.1111 8H9.88889C9.3366 8 8.88889 7.55228 8.88889 7V5ZM4 17C4 16.4477 4.44772 16 5 16H9.22222C9.77451 16 10.2222 16.4477 10.2222 17V19C10.2222 19.5523 9.77451 20 9.22222 20H5C4.44771 20 4 19.5523 4 19V17ZM13.7778 17C13.7778 16.4477 14.2255 16 14.7778 16H19C19.5523 16 20 16.4477 20 17V19C20 19.5523 19.5523 20 19 20H14.7778C14.2255 20 13.7778 19.5523 13.7778 19V17Z"
          stroke="currentColor" stroke-width="1.5" stroke-linejoin="round"/>
    <path d="M12 8.44444V12M7.11108 16V13C7.11108 12.4477 7.5588 12 8.11108 12H15.8889C16.4411 12 16.8889 12.4477 16.8889 13V16"
          stroke="currentColor" stroke-width="1.5" stroke-linecap="round" stroke-linejoin="round"/>
</svg>
