<svg width="24" height="24" viewBox="0 0 24 24" fill="none" xmlns="http://www.w3.org/2000/svg">
    <path d="M19.4697 20.5303C19.7626 20.8232 20.2374 20.8232 20.5303 20.5303C20.8232 20.2374 20.8232 19.7626 20.5303 19.4697L19.4697 20.5303ZM17.3049 11.0275C17.3049 14.4944 14.4944 17.3049 11.0275 17.3049V18.8049C15.3228 18.8049 18.8049 15.3228 18.8049 11.0275H17.3049ZM11.0275 17.3049C7.56051 17.3049 4.75 14.4944 4.75 11.0275H3.25C3.25 15.3228 6.73208 18.8049 11.0275 18.8049V17.3049ZM4.75 11.0275C4.75 7.56051 7.56051 4.75 11.0275 4.75V3.25C6.73208 3.25 3.25 6.73208 3.25 11.0275H4.75ZM11.0275 4.75C14.4944 4.75 17.3049 7.56051 17.3049 11.0275H18.8049C18.8049 6.73208 15.3228 3.25 11.0275 3.25V4.75ZM15.4663 16.5269L19.4697 20.5303L20.5303 19.4697L16.5269 15.4663L15.4663 16.5269Z"
          fill="currentColor"/>
</svg>
