<svg width="20" height="20" viewBox="0 0 20 20" fill="none" xmlns="http://www.w3.org/2000/svg">
    <path d="M16.6464 17.3536C16.8417 17.5488 17.1583 17.5488 17.3536 17.3536C17.5488 17.1583 17.5488 16.8417 17.3536 16.6464L16.6464 17.3536ZM14.798 9.14902C14.798 12.2689 12.2689 14.798 9.14902 14.798V15.798C12.8212 15.798 15.798 12.8212 15.798 9.14902H14.798ZM9.14902 14.798C6.02915 14.798 3.5 12.2689 3.5 9.14902H2.5C2.5 12.8212 5.47687 15.798 9.14902 15.798V14.798ZM3.5 9.14902C3.5 6.02915 6.02915 3.5 9.14902 3.5V2.5C5.47687 2.5 2.5 5.47687 2.5 9.14902H3.5ZM9.14902 3.5C12.2689 3.5 14.798 6.02915 14.798 9.14902H15.798C15.798 5.47687 12.8212 2.5 9.14902 2.5V3.5ZM13.1435 13.8506L16.6464 17.3536L17.3536 16.6464L13.8506 13.1435L13.1435 13.8506Z"
          fill="currentColor"/>
</svg>
