<svg width="24" height="24" viewBox="0 0 24 24" fill="none" xmlns="http://www.w3.org/2000/svg">
    <path d="M20.5896 11.1405C20.8632 11.5239 21 11.7165 21 12C21 12.2844 20.8632 12.4761 20.5896 12.8595C19.3602 14.5839 16.2201 18 12 18C7.779 18 4.6398 14.583 3.4104 12.8595C3.1368 12.4761 3 12.2835 3 12C3 11.7156 3.1368 11.5239 3.4104 11.1405C4.6398 9.4161 7.7799 6 12 6C16.221 6 19.3602 9.417 20.5896 11.1405Z"
          stroke="currentColor" stroke-width="1.5" stroke-linecap="round" stroke-linejoin="round"/>
    <path d="M14.7 12C14.7 11.2839 14.4155 10.5972 13.9092 10.0908C13.4028 9.58446 12.7161 9.3 12 9.3C11.2839 9.3 10.5972 9.58446 10.0908 10.0908C9.58446 10.5972 9.3 11.2839 9.3 12C9.3 12.7161 9.58446 13.4028 10.0908 13.9092C10.5972 14.4155 11.2839 14.7 12 14.7C12.7161 14.7 13.4028 14.4155 13.9092 13.9092C14.4155 13.4028 14.7 12.7161 14.7 12Z"
          stroke="currentColor" stroke-width="1.5" stroke-linecap="round" stroke-linejoin="round"/>
</svg>
